<svg width="67" height="76" viewBox="0 0 67 76" fill="none" xmlns="http://www.w3.org/2000/svg">
<path d="M46.4789 39.8821L59.5099 62.6158C60.2489 63.8952 61.3886 64.4301 62.5996 64.4301C64.4116 64.4301 66.2948 63.0839 66.2948 60.7971L66.3615 15.3341C66.3615 13.0473 64.5496 11.6343 62.7332 11.6343C61.5222 11.6343 60.3157 12.2405 59.5767 13.5198L46.4789 36.1867C46.145 36.7261 46.007 37.3947 46.007 38.001C46.007 38.6741 46.1405 39.2803 46.4789 39.8821Z" fill="#2FC18C"/>
<path d="M32.9804 47.616L46.0782 70.2829C46.4166 70.8891 46.6169 71.5622 46.6169 72.164C46.6169 74.1164 44.8717 75.7969 42.9218 75.7969C42.3163 75.7969 41.7108 75.6632 41.1098 75.3244L1.81635 52.5238C0.538625 51.7839 0.00439453 50.5714 0.00439453 49.4302C0.00439453 47.5491 1.41568 45.6636 3.69956 45.6636L29.8284 45.7973C31.1729 45.7973 32.3794 46.4704 32.9849 47.6115" fill="#2FC18C"/>
<path d="M29.7572 29.9952H3.62839C1.3445 29.9952 0 28.1809 0 26.3622C0 25.1498 0.538696 23.9418 1.81197 23.2018L41.1722 0.539369C41.7777 0.20505 42.4499 0 43.0554 0C45.0054 0 46.6838 1.68051 46.6838 3.69981C46.6838 4.30604 46.4834 4.91227 46.1451 5.51405L32.9137 28.1809C32.2415 29.3265 31.1017 29.9952 29.7572 29.9952Z" fill="#2FC18C"/>
</svg>

